<svg id="visual" viewBox="0 0 900 600" width="900" height="600" xmlns="http://www.w3.org/2000/svg" xmlns:xlink="http://www.w3.org/1999/xlink" version="1.1"><rect x="0" y="0" width="900" height="600" fill="#001220"></rect><path d="M0 348L21.5 354.7C43 361.3 86 374.7 128.8 384.8C171.7 395 214.3 402 257.2 407.5C300 413 343 417 385.8 410.8C428.7 404.7 471.3 388.3 514.2 384.5C557 380.7 600 389.3 642.8 397C685.7 404.7 728.3 411.3 771.2 411.7C814 412 857 406 878.5 403L900 400L900 601L878.5 601C857 601 814 601 771.2 601C728.3 601 685.7 601 642.8 601C600 601 557 601 514.2 601C471.3 601 428.7 601 385.8 601C343 601 300 601 257.2 601C214.3 601 171.7 601 128.8 601C86 601 43 601 21.5 601L0 601Z" fill="#b9d7ea"></path><path d="M0 401L21.5 399.3C43 397.7 86 394.3 128.8 395C171.7 395.7 214.3 400.3 257.2 407C300 413.7 343 422.3 385.8 425.7C428.7 429 471.3 427 514.2 431.2C557 435.3 600 445.7 642.8 444.7C685.7 443.7 728.3 431.3 771.2 423.7C814 416 857 413 878.5 411.5L900 410L900 601L878.5 601C857 601 814 601 771.2 601C728.3 601 685.7 601 642.8 601C600 601 557 601 514.2 601C471.3 601 428.7 601 385.8 601C343 601 300 601 257.2 601C214.3 601 171.7 601 128.8 601C86 601 43 601 21.5 601L0 601Z" fill="#a0c4e1"></path><path d="M0 525L21.5 513.2C43 501.3 86 477.7 128.8 475C171.7 472.3 214.3 490.7 257.2 502.2C300 513.7 343 518.3 385.8 514.3C428.7 510.3 471.3 497.7 514.2 491C557 484.3 600 483.7 642.8 483.7C685.7 483.7 728.3 484.3 771.2 481.3C814 478.3 857 471.7 878.5 468.3L900 465L900 601L878.5 601C857 601 814 601 771.2 601C728.3 601 685.7 601 642.8 601C600 601 557 601 514.2 601C471.3 601 428.7 601 385.8 601C343 601 300 601 257.2 601C214.3 601 171.7 601 128.8 601C86 601 43 601 21.5 601L0 601Z" fill="#8ab2d7"></path><path d="M0 527L21.5 524.7C43 522.3 86 517.7 128.8 522.2C171.7 526.7 214.3 540.3 257.2 540.7C300 541 343 528 385.8 526.2C428.7 524.3 471.3 533.7 514.2 540.2C557 546.7 600 550.3 642.8 550C685.7 549.7 728.3 545.3 771.2 547.8C814 550.3 857 559.7 878.5 564.3L900 569L900 601L878.5 601C857 601 814 601 771.2 601C728.3 601 685.7 601 642.8 601C600 601 557 601 514.2 601C471.3 601 428.7 601 385.8 601C343 601 300 601 257.2 601C214.3 601 171.7 601 128.8 601C86 601 43 601 21.5 601L0 601Z" fill="#769fcd"></path></svg>